<?xml version="1.0" encoding="UTF-8"?> <svg xmlns="http://www.w3.org/2000/svg" xmlns:xlink="http://www.w3.org/1999/xlink" version="1.1" id="Layer_1" x="0px" y="0px" viewBox="0 0 187 60" style="enable-background:new 0 0 187 60;" xml:space="preserve"> <style type="text/css"> .st0{fill:#FFFFFF;} .st1{fill:#3366FF;} .st2{fill:#F500FF;} </style> <g> <g> <g> <path class="st0" d="M9.7945309,38.2899055c0.357852,0.6218872,0.8199711,1.1309166,1.3854284,1.526619 c0.5652256,0.3957062,1.2154427,0.6883011,1.9504213,0.8764c0.7352104,0.1890297,1.4982872,0.282383,2.2899275,0.282383 c0.5654573,0,1.1590128-0.0650215,1.7809-0.1978531c0.6221199-0.1314392,1.1873455-0.3390427,1.696373-0.6218872 c0.5087948-0.2823792,0.9328289-0.6590424,1.2721043-1.1309128c0.3392735-0.4704819,0.5087948-1.0645027,0.5087948-1.7806702 c0-1.2061539-0.8011608-2.1104202-2.403019-2.7141953c-1.6025543-0.6023788-3.8358202-1.2056885-6.6997976-1.8089981 c-1.168767-0.26334-2.3092022-0.5745125-3.4206104-0.9330616c-1.1123366-0.3576202-2.1018286-0.8285637-2.9684763-1.4132957 c-0.8673439-0.5842667-1.5644703-1.3190136-2.0918434-2.2051678c-0.528302-0.8852253-0.7916403-1.9692307-0.7916403-3.2510891 c0-1.8842373,0.3676054-3.4294338,1.1025836-4.6360531c0.7349782-1.2061539,1.7049642-2.1573296,2.9118147-2.8553848 c1.2059216-0.6971264,2.5627871-1.1871109,4.0708275-1.4699554c1.5071125-0.2828455,3.0530052-0.4240351,4.6362858-0.4240351 c1.5830479,0,3.1184902,0.1509428,4.607954,0.4523659c1.4885349,0.3018866,2.8173008,0.810914,3.9860668,1.526618 c1.1678371,0.7161694,2.138752,1.6678085,2.9115829,2.8549213c0.7721329,1.1875763,1.2342529,2.6858635,1.3851967,4.495327 h-7.6326294c-0.1130905-1.5451965-0.6980553-2.5911179-1.7528-3.1382294 c-1.0556755-0.5457191-2.2994499-0.8197403-3.731554-0.8197403c-0.4523659,0-0.942584,0.0283318-1.4699574,0.0849934 c-0.5283012,0.0561981-1.0089979,0.1792736-1.4418573,0.3673725c-0.4337883,0.1890278-0.8011618,0.4621201-1.1025839,0.8197403 c-0.3021193,0.3585472-0.4523659,0.8392448-0.4523659,1.4416256c0,0.7166328,0.2633381,1.3004341,0.7916403,1.7528 c0.5273733,0.4523659,1.2156754,0.8197403,2.0637445,1.1025848c0.8480701,0.2828445,1.8180561,0.5368938,2.9118156,0.7630768 c1.0928288,0.2261829,2.2049351,0.4718723,3.3358498,0.7352104c1.1678371,0.264267,2.3082714,0.5847321,3.4206085,0.9613934 c1.1111755,0.3771267,2.100668,0.8759365,2.9682446,1.4982872c0.8666477,0.6218872,1.5637741,1.3947182,2.0918446,2.3180275 c0.5276051,0.9237747,0.7916393,2.0635109,0.7916393,3.4206085c0,1.9223251-0.386879,3.5334702-1.1590137,4.8339043 c-0.7730618,1.3004379-1.780899,2.3463593-3.0249062,3.1382294c-1.2437725,0.7914085-2.6670532,1.3478088-4.2686787,1.6678085 c-1.6025543,0.3195381-3.2325115,0.4806976-4.8905668,0.4806976c-1.696372,0-3.3553562-0.1699829-4.9755602-0.5090256 c-1.6211319-0.3390427-3.0627575-0.9047318-4.3253412-1.6961403c-1.2632804-0.7914085-2.299449-1.8377953-3.1096666-3.1382294 c-0.8109145-1.2999725-1.2535272-2.9301605-1.3285344-4.8905678H9.257637 C9.257637,36.9239845,9.4359827,37.6680183,9.7945309,38.2899055z"></path> </g> <g> <path class="st0" d="M39.7881508,5.185925v21.6545753l10.1204071-10.5163441h9.4987526l-11.0251389,10.742527 l12.2689133,18.4884777h-9.7247047l-8.0285645-13.0605507l-3.1096649,2.9965744v10.0639763h-8.0285664V5.185925H39.7881508z"></path> </g> <g> <path class="st0" d="M68.735611,16.3241558v5.4279251h0.1130905c0.3764343-0.9047318,0.885231-1.7430477,1.526619-2.5158787 c0.6404648-0.7723656,1.3754425-1.4323368,2.2049408-1.9789829c0.8287964-0.5461845,1.7149429-0.9702187,2.6575317-1.2721052 c0.9416504-0.3014231,1.9223175-0.4523659,2.9399109-0.4523659c0.5273743,0,1.111412,0.0947456,1.7528,0.2828445v7.4631071 c-0.3773575-0.0752392-0.8294907-0.1411896-1.3568649-0.1978531c-0.5282974-0.0566616-1.0373306-0.0849915-1.526619-0.0849915 c-1.4699554,0-2.7139587,0.2456894-3.7315521,0.7352104c-1.0178223,0.4899845-1.8375626,1.1587811-2.4594498,2.0068512 c-0.6221161,0.8480682-1.0654297,1.8377934-1.3287659,2.968708c-0.264267,1.1304493-0.3957062,2.3561115-0.3957062,3.6746578 v13.1738777h-8.0285606V16.3241558H68.735611z"></path> </g> <g> <path class="st0" d="M79.8740768,24.6074657c0.7154694-1.9028149,1.7332916-3.5241795,3.0530014-4.8626995 c1.3190155-1.3371277,2.9020615-2.3746891,4.749382-3.1094341c1.8463821-0.7352114,3.9198837-1.1025839,6.2193298-1.1025839 c2.2987518,0,4.3817749,0.3673725,6.2476654,1.1025839c1.8656616,0.734745,3.4577637,1.7723064,4.7774734,3.1094341 c1.3190155,1.3385201,2.3368378,2.9598846,3.0532379,4.8626995c0.7154694,1.9037457,1.0742569,4.0239201,1.0742569,6.3605232 c0,2.337534-0.3587875,4.4479542-1.0742569,6.3321934c-0.7164001,1.8856316-1.7342224,3.4967766-3.0532379,4.8343697 c-1.3197098,1.3385201-2.9118118,2.3658638-4.7774734,3.0815659c-1.8658905,0.7152405-3.9489136,1.0742531-6.2476654,1.0742531 c-2.2994461,0-4.3729477-0.3590126-6.2193298-1.0742531c-1.8473206-0.7157021-3.4303665-1.7430458-4.749382-3.0815659 c-1.3197098-1.3375931-2.337532-2.9487381-3.0530014-4.8343697c-0.7164001-1.8842392-1.0742493-3.9946594-1.0742493-6.3321934 C78.7998276,28.6313858,79.1576767,26.5112114,79.8740768,24.6074657z M87.1676636,34.3885994 c0.226181,1.1123352,0.6121292,2.111351,1.1590118,2.9965744c0.5459518,0.8861542,1.2721024,1.5930328,2.1768341,2.1201744 c0.9045029,0.5285339,2.0354156,0.7918739,3.3922806,0.7918739s2.4966049-0.26334,3.4206085-0.7918739 c0.9233093-0.5271416,1.658287-1.2340202,2.2051697-2.1201744c0.5459518-0.8852234,0.9328308-1.8842392,1.1590118-2.9965744 c0.226181-1.1114082,0.3392792-2.2516098,0.3392792-3.4206104c0-1.1680698-0.1130981-2.3180256-0.3392792-3.4489403 s-0.61306-2.1289997-1.1590118-2.9965744c-0.5468826-0.8666477-1.2818604-1.5735283-2.2051697-2.1201744 c-0.9240036-0.5461845-2.0637436-0.8197403-3.4206085-0.8197403s-2.4877777,0.2735558-3.3922806,0.8197403 c-0.9047318,0.5466461-1.6308823,1.2535267-2.1768341,2.1201744c-0.5468826,0.8675747-0.9328308,1.8656597-1.1590118,2.9965744 s-0.3392792,2.2808704-0.3392792,3.4489403C86.8283844,32.1369896,86.9414825,33.2771912,87.1676636,34.3885994z"></path> </g> <g> <path class="st0" d="M144.8932953,38.5444183c1.2059326,1.1685371,2.940155,1.7528038,5.2017517,1.7528038 c1.6201935,0,3.015152-0.404995,4.1839142-1.2159081c1.1678467-0.8099861,1.8842468-1.6678085,2.1485138-2.5725403h7.0673981 c-1.1309204,3.5056038-2.8649139,6.0126572-5.2017365,7.5197678c-2.3375397,1.5080414-5.1643677,2.2618294-8.4809418,2.2618294 c-2.2994385,0-4.3729401-0.367836-6.2193298-1.102581c-1.8470764-0.7352104-3.4117889-1.7811356-4.6927185-3.1382332 c-1.2818604-1.3566322-2.2711182-2.977066-2.9682465-4.8622322c-0.6978149-1.8842392-1.0459137-3.9579697-1.0459137-6.2193356 c0-2.1856594,0.3576202-4.2208424,1.0742493-6.1060085c0.7154694-1.8847027,1.7332916-3.5144272,3.053009-4.8910313 c1.3190155-1.3752117,2.8923035-2.4592171,4.7210388-3.2510891c1.8278198-0.7914085,3.8534698-1.1871119,6.0779114-1.1871119 c2.4877777,0,4.6548615,0.4806967,6.502182,1.4416246c1.8463898,0.9613934,3.3639526,2.253006,4.5513,3.8729763 c1.1873322,1.6213646,2.0442352,3.4684486,2.5725403,5.5407848c0.5276031,2.0737305,0.7156982,4.2408142,0.5654449,6.5021782 h-21.0891113C143.0276337,35.4911842,143.686676,37.3763504,144.8932953,38.5444183z M153.9680176,23.1653767 c-0.9611664-1.0547466-2.4225159-1.5828171-4.3817749-1.5828171c-1.2818451,0-2.3465881,0.2173595-3.1946564,0.650219 c-0.8480682,0.4337883-1.5263824,0.9706821-2.0354156,1.6111469c-0.5087891,0.6413918-0.8673401,1.3199406-1.0742493,2.0356445 c-0.2076111,0.7161694-0.3302155,1.3566341-0.3673706,1.9223232h13.0605469 C155.5979767,25.7662468,154.929184,24.2210503,153.9680176,23.1653767z"></path> </g> <g> <path class="st0" d="M174.0105133,16.3241558v5.4279251h0.1130981c0.3764343-0.9047318,0.8852234-1.7430477,1.5266113-2.5158787 c0.6404724-0.7723656,1.3754425-1.4323368,2.2049408-1.9789829c0.8287964-0.5461845,1.7149506-0.9702187,2.6575317-1.2721052 c0.9416504-0.3014231,1.9223175-0.4523659,2.9399109-0.4523659c0.5273743,0,1.1114197,0.0947456,1.7528076,0.2828445v7.4631071 c-0.3773651-0.0752392-0.8294983-0.1411896-1.3568726-0.1978531c-0.5282898-0.0566616-1.037323-0.0849915-1.5266113-0.0849915 c-1.4699554,0-2.7139587,0.2456894-3.7315521,0.7352104c-1.0178223,0.4899845-1.8375702,1.1587811-2.4594574,2.0068512 c-0.6221161,0.8480682-1.0654297,1.8377934-1.3287659,2.968708c-0.264267,1.1304493-0.3957062,2.3561115-0.3957062,3.6746578 v13.1738777h-8.0285645V16.3241558H174.0105133z"></path> </g> </g> <g> <g> <polygon class="st1" points="132.2566223,5.185925 128.2306824,1.1362131 124.2047348,5.185925 124.2047348,53.607048 132.2566223,45.5551605 "></polygon> </g> <g> <polygon class="st2" points="112.0778732,56.2480354 116.1038132,60.2977486 120.1297607,56.2480354 120.1297607,7.8269143 112.0778732,15.8788013 "></polygon> </g> </g> </g> </svg> 